<?xml version="1.0" encoding="UTF-8" standalone="no"?>
<svg
   version="1.1"
   id="svg255"
   sodipodi:docname="avatartion.svg"
   width="264.5"
   height="307.1293"
   inkscape:version="1.2.2 (b0a84865, 2022-12-01)"
   xmlns:inkscape="http://www.inkscape.org/namespaces/inkscape"
   xmlns:sodipodi="http://sodipodi.sourceforge.net/DTD/sodipodi-0.dtd"
   xmlns="http://www.w3.org/2000/svg"
   xmlns:svg="http://www.w3.org/2000/svg">
  <defs
     id="defs259" />
  <sodipodi:namedview
     id="namedview257"
     pagecolor="#ffffff"
     bordercolor="#000000"
     borderopacity="0.25"
     inkscape:showpageshadow="2"
     inkscape:pageopacity="0.0"
     inkscape:pagecheckerboard="0"
     inkscape:deskcolor="#d1d1d1"
     showgrid="false"
     inkscape:zoom="1.5733333"
     inkscape:cx="129.97881"
     inkscape:cy="213.87712"
     inkscape:window-width="1440"
     inkscape:window-height="823"
     inkscape:window-x="0"
     inkscape:window-y="25"
     inkscape:window-maximized="0"
     inkscape:current-layer="svg255" />
  <svg
     width="306"
     height="306"
     fill="none"
     version="1.1"
     id="svg186"
     transform="translate(-13.8,-48.570684)">
    <path
       fill="#ffffff"
       d="m 236.1,278.4 c -0.7,0.5 -1.5,1 -2.2,1.5 -0.8,0.5 -1.5,1 -2.3,1.4 -0.7,0.4 -1.3,0.8 -2,1.2 -0.1,0.1 -0.2,0.1 -0.3,0.2 -2.3,1.4 -4.7,2.7 -7.1,3.9 -0.7,0.4 -1.5,0.8 -2.2,1.1 0,0 -0.1,0.1 -0.2,0.1 l -2.4,1.2 c -1.6,0.8 -3.3,1.5 -4.9,2.2 -0.8,0.4 -1.7,0.7 -2.5,1 -0.8,0.3 -1.7,0.7 -2.5,1 -0.8,0.3 -1.7,0.7 -2.5,1 h -0.1 c -0.8,0.3 -1.7,0.6 -2.5,0.9 -1.8,0.6 -3.7,1.2 -5.5,1.8 -0.6,0.2 -1.3,0.4 -1.9,0.6 -1.9,0.6 -3.8,1.1 -5.7,1.5 -0.7,0.2 -1.4,0.3 -2.2,0.5 -1.8,0.4 -3.7,0.8 -5.5,1.2 -0.4,0.1 -0.7,0.1 -1.1,0.2 -0.6,0.1 -1.3,0.2 -1.9,0.3 -0.9,0.1 -1.7,0.3 -2.6,0.4 -0.4,0.1 -0.8,0.1 -1.2,0.2 -0.5,0.1 -1.1,0.2 -1.7,0.2 -1.6,0.2 -3.3,0.4 -4.9,0.6 -0.5,0.1 -1.1,0.1 -1.6,0.2 h -0.1 c -0.7,0.1 -1.4,0.1 -2.1,0.2 -0.7,0.1 -1.4,0.1 -2.1,0.1 -0.4,0 -0.9,0.1 -1.3,0.1 -0.8,0 -1.5,0.1 -2.2,0.1 -1,0 -1.9,0.1 -2.9,0.1 h -5 c -42.2,-0.6 -80.1,-18.5 -107.2,-46.9 0,0 0,-0.1 -0.1,-0.1 -3,-2.7 -0.4,-17.1 11.7,-26.2 15.2,-11.5 51.6,-18.7 51.6,-18.7 0,0 14.1,-2.3 66.4,8.6 30.6,6.4 53.9,15.7 66.9,40.9 2.7,5.2 5.4,13.2 -4.1,17.4 z"
       id="path182" />
    <path
       fill="#000000"
       d="m 173.6,219 c 19.2,3.9 39.7,8.1 55.5,20.8 5.3,4.3 8.8,10.6 11.7,16.7 1.4,3 2.8,6.1 3.9,9.4 0.6,2.2 1.5,4.7 1,7.3 -0.1,0.7 -0.7,1.6 -1.2,2.1 -2.3,2.3 -4.8,3.7 -7.3,5.5 -14.7,10.2 -31.6,17.4 -49.1,21.2 -39,8.5 -81.2,1.9 -115.5,-18.6 -11.4,-6.9 -21.9,-15.3 -30.9,-25.2 -1,-1.2 -1,-3.2 -1,-4.5 0.1,-3 0.9,-5.9 1.9,-8.6 2.4,-6.2 5.5,-12.4 10.8,-16.7 3.8,-2.6 7.9,-4.8 12.1,-6.6 13.2,-5.6 27.1,-9.5 41.4,-11.1 1.2,-0.1 1.4,1.6 0.2,1.8 -13.7,2.8 -27.3,7 -40,12.7 -4.6,2.3 -9.5,4.3 -13.2,7.9 -3.5,3.8 -6,8.5 -8,13.3 -1.3,2.9 -2.2,7.5 -1.8,9.8 6.3,7.5 13.7,14.1 21.7,19.8 43.8,30.6 110.3,32.6 156.9,7.1 4.2,-2.3 8.3,-4.9 12.2,-7.6 1.9,-1.3 3.9,-2.4 5.4,-3.9 0.1,-0.1 0,0 0,0.1 0,0.1 -0.1,0.2 -0.1,0.2 0.1,-1.2 -0.3,-2.8 -0.8,-4.4 -1.8,-5.8 -4.7,-11.9 -7.8,-17.2 -4.9,-7.9 -13.2,-12.9 -21.6,-16.9 -5.8,-2.7 -11.9,-4.8 -18.1,-6.8 -6.2,-2 -12.5,-3.7 -18.8,-5.2 -1.6,-0.4 -1.1,-2.7 0.5,-2.4 z"
       id="path184" />
  </svg>
  <svg
     width="306"
     height="356"
     fill="none"
     version="1.1"
     id="svg215"
     transform="translate(-13.8,-48.570684)">
    <path
       fill="#7e5d6d"
       d="m 89.1,210.6 c 0,0 14.6,-5.8 17.3,-6 l 0.2,2.3 c 0,0 -11.6,5 -12.3,5.8 -0.6,0.7 -5.2,-2.1 -5.2,-2.1 z"
       id="path188" />
    <path
       fill="#ffffff"
       d="m 269.299,340.4 h -252.9 c 0,0 6.6,-46.9 21.9,-79.9 11.5,-25 33.9,-41 54.1,-48.2 5.7,-2 10.1,-4.2 14.2,-5.3 0,0.2 18.4,-3 33.3,-1.3 23.3,2.6 47.1,10.5 47.4,10.4 12.9,3.4 28.7,13 51.6,32.2 25.8,21.6 30.4,92.1 30.4,92.1 z"
       id="path190" />
    <mask
       id="Outfit08_svg__a"
       width="254"
       height="136"
       x="16"
       y="205"
       maskUnits="userSpaceOnUse">
      <path
         fill="#ffffff"
         d="m 269.299,340.4 h -252.9 c 0,0 6.6,-46.9 21.9,-79.9 11.5,-25 33.9,-41 54.1,-48.2 5.7,-2 10.1,-4.2 14.2,-5.3 0,0.2 18.4,-3 33.3,-1.3 23.3,2.6 47.1,10.5 47.4,10.4 12.9,3.4 28.7,13 51.6,32.2 25.8,21.6 30.4,92.1 30.4,92.1 z"
         id="path192" />
    </mask>
    <g
       fill="#000000"
       mask="url(#Outfit08_svg__a)"
       id="g197">
      <path
         d="m 68.4,204.7 c 5.5,0.2 8.3,0.3 13.8,0.2 4.9,2.9 7.3,4.3 12.3,7 5.1,-0.3 7.699,-0.5 12.799,-1.1 5.1,2.4 7.6,3.6 12.7,5.9 5.2,-0.8 7.8,-1.3 12.9,-2.3 5.2,2 7.9,2.9 13.1,4.6 5.2,-1.3 7.8,-2.1 13,-3.6 5.4,1.4 8.1,2.1 13.5,3.3 5.2,-1.9 7.8,-2.8 13,-4.9 5.5,0.9 8.3,1.3 13.8,2 5.1,-2.4 7.7,-3.6 12.8,-6.2 5.6,0.3 8.4,0.4 14,0.5 5,-3 7.5,-4.5 12.5,-7.6 6.3,-0.5 9.4,-0.8 15.7,-1.5 -0.5,2.4 -0.7,3.6 -1.1,6 -5.2,0.6 -7.9,0.9 -13.1,1.3 -5.1,3.2 -7.6,4.8 -12.8,7.8 -5.7,0 -8.5,-0.1 -14.2,-0.4 -5.2,2.6 -7.8,3.9 -13,6.3 -5.6,-0.7 -8.4,-1.1 -14,-1.9 -5.2,2.1 -7.9,3.1 -13.1,4.9 -5.5,-1.2 -8.2,-1.9 -13.6,-3.3 -5.2,1.5 -7.9,2.3 -13.1,3.6 -5.3,-1.8 -8,-2.7 -13.3,-4.7 -5.2,1 -7.8,1.5 -13.1,2.3 -5.2,-2.3 -7.7,-3.4 -12.9,-5.9 -5.2,0.5 -7.8,0.7 -12.9,1 -5,-2.7 -7.5,-4.1 -12.4,-7.1 -4.6,0 -6.9,0 -11.5,-0.2 -0.7,-2.3 -1.1,-3.5 -1.8,-6 z M 67,230.1 c 5.5,0.1 8.2,0.1 13.8,-0.1 5,2.8 7.5,4.1 12.5,6.7 5.1,-0.4 7.6,-0.7 12.7,-1.4 5.1,2.3 7.7,3.4 12.9,5.5 5.1,-0.9 7.6,-1.5 12.8,-2.6 5.3,1.8 8,2.7 13.3,4.3 5.1,-1.5 7.7,-2.2 12.8,-3.9 5.4,1.3 8.2,1.9 13.6,3 5.1,-2 7.6,-3 12.7,-5.2 5.6,0.8 8.3,1.1 13.9,1.6 5,-2.5 7.5,-3.8 12.5,-6.5 5.6,0.2 8.5,0.2 14.1,0.1 4.9,-3 7.3,-4.6 12.2,-7.8 6.3,-0.6 9.5,-0.9 15.8,-1.8 -0.4,2.4 -0.5,3.6 -0.9,5.9 -5.3,0.7 -7.9,1 -13.1,1.5 -5,3.3 -7.4,4.9 -12.4,8 -5.7,0.1 -8.6,0.1 -14.3,-0.1 -5.1,2.7 -7.6,4 -12.7,6.6 -5.6,-0.5 -8.5,-0.8 -14.1,-1.6 -5.1,2.2 -7.7,3.2 -12.9,5.2 -5.5,-1.1 -8.3,-1.7 -13.8,-3 -5.2,1.7 -7.7,2.4 -12.9,3.9 -5.4,-1.6 -8.1,-2.5 -13.4,-4.3 -5.2,1.1 -7.7,1.7 -12.9,2.6 -5.2,-2.1 -7.9,-3.2 -13.1,-5.6 -5.1,0.6 -7.7,0.9 -12.8,1.4 -5.1,-2.6 -7.6,-4 -12.6,-6.8 -4.6,0.1 -6.9,0.2 -11.4,0.1 -1,-2.2 -1.4,-3.4 -2.3,-5.7 z m -1.4,25 c 5.4,-0.1 8.2,-0.2 13.7,-0.4 5,2.7 7.6,4 12.7,6.4 5,-0.6 7.5,-0.9 12.5,-1.7 5.2,2.2 7.8,3.2 13.1,5.2 5,-1.1 7.5,-1.6 12.6,-2.9 5.4,1.7 8.1,2.5 13.5,4 5,-1.6 7.5,-2.4 12.5,-4.1 5.5,1.2 8.3,1.7 13.8,2.7 5,-2.1 7.5,-3.1 12.4,-5.4 5.6,0.6 8.4,0.9 14,1.3 4.9,-2.6 7.4,-3.9 12.2,-6.7 5.7,0 8.5,0 14.2,-0.2 4.8,-3.1 7.2,-4.7 11.9,-7.9 6.3,-0.7 9.5,-1.1 15.8,-2.1 -0.3,2.3 -0.4,3.5 -0.6,5.9 -5.3,0.8 -7.9,1.2 -13.2,1.8 -4.8,3.3 -7.3,5 -12.1,8.1 -5.8,0.2 -8.7,0.3 -14.4,0.2 -5,2.8 -7.4,4.1 -12.4,6.8 -5.7,-0.4 -8.5,-0.6 -14.2,-1.3 -5,2.3 -7.5,3.4 -12.6,5.5 -5.6,-0.9 -8.4,-1.5 -13.9,-2.7 -5.1,1.8 -7.6,2.6 -12.7,4.2 -5.5,-1.5 -8.2,-2.3 -13.6,-4 -5.1,1.3 -7.6,1.9 -12.7,2.9 -5.3,-2 -8,-3.1 -13.2,-5.3 -5.1,0.8 -7.6,1.1 -12.7,1.7 -5.2,-2.5 -7.7,-3.8 -12.8,-6.5 -4.5,0.2 -6.8,0.3 -11.3,0.4 -1.1,-2.3 -1.5,-3.5 -2.5,-5.9 z M 64.1,280 c 5.4,-0.2 8.1,-0.4 13.5,-0.8 5.1,2.6 7.7,3.8 12.9,6.1 4.9,-0.7 7.4,-1.1 12.4,-2 5.3,2.1 8,3.1 13.3,4.9 4.9,-1.2 7.4,-1.8 12.4,-3.2 5.4,1.6 8.2,2.3 13.6,3.6 4.9,-1.7 7.4,-2.6 12.3,-4.4 5.6,1 8.3,1.5 13.9,2.3 4.9,-2.2 7.3,-3.3 12.2,-5.6 5.7,0.5 8.5,0.7 14.2,1 4.8,-2.6 7.2,-4 12,-6.8 5.7,-0.1 8.6,-0.2 14.3,-0.5 4.7,-3.1 7,-4.7 11.6,-8 6.4,-0.8 9.6,-1.3 15.9,-2.4 -0.2,2.3 -0.2,3.5 -0.4,5.8 -5.3,0.9 -7.9,1.3 -13.2,2 -4.7,3.4 -7.1,5 -11.8,8.2 -5.8,0.3 -8.7,0.4 -14.5,0.5 -4.8,2.9 -7.3,4.3 -12.1,6.9 -5.7,-0.3 -8.6,-0.4 -14.3,-0.9 -4.9,2.4 -7.4,3.5 -12.3,5.7 -5.7,-0.8 -8.5,-1.3 -14.1,-2.3 -5,1.9 -7.5,2.8 -12.5,4.5 -5.5,-1.3 -8.3,-2.1 -13.8,-3.6 -5,1.4 -7.5,2 -12.5,3.2 -5.4,-1.9 -8.1,-2.8 -13.5,-4.9 -5,0.9 -7.5,1.3 -12.5,2 -5.3,-2.4 -7.9,-3.6 -13,-6.2 -4.5,0.4 -6.7,0.5 -11.2,0.7 -1.1,-2.3 -1.7,-3.5 -2.8,-5.8 z m -1.4,24.6 c 5.3,-0.4 8,-0.6 13.4,-1.2 5.2,2.4 7.8,3.6 13.1,5.8 4.9,-0.8 7.3,-1.3 12.199,-2.3 5.4,1.9 8.1,2.9 13.5,4.6 4.9,-1.3 7.3,-2 12.1,-3.5 5.5,1.4 8.3,2.1 13.8,3.3 4.8,-1.8 7.2,-2.7 12.1,-4.7 5.6,0.9 8.4,1.3 14.1,2 4.8,-2.3 7.1,-3.4 11.9,-5.8 5.7,0.4 8.6,0.5 14.3,0.7 4.7,-2.7 7,-4.1 11.7,-7 5.8,-0.2 8.6,-0.3 14.4,-0.7 4.5,-3.2 6.8,-4.8 11.3,-8.1 6.4,-0.9 9.6,-1.4 16,-2.6 -0.1,2.3 -0.1,3.4 -0.2,5.7 -5.3,1 -7.9,1.4 -13.2,2.2 -4.6,3.4 -6.9,5.1 -11.5,8.3 -5.8,0.5 -8.8,0.6 -14.6,0.8 -4.7,2.9 -7.1,4.4 -11.8,7.1 -5.8,-0.1 -8.7,-0.2 -14.5,-0.6 -4.8,2.5 -7.2,3.6 -12,5.9 -5.7,-0.7 -8.6,-1.1 -14.3,-2 -4.9,2 -7.3,2.9 -12.2,4.7 -5.6,-1.2 -8.4,-1.9 -14,-3.3 -4.9,1.5 -7.4,2.2 -12.3,3.5 -5.5,-1.7 -8.2,-2.6 -13.7,-4.6 -4.9,1 -7.4,1.5 -12.3,2.3 -5.3,-2.2 -8,-3.4 -13.3,-5.8 -4.4,0.5 -6.6,0.7 -11,1 -1.2,-2.2 -1.8,-3.4 -3,-5.7 z M 61.1,329 c 5.3,-0.5 7.9,-0.8 13.2,-1.5 5.3,2.3 8,3.4 13.3,5.5 4.8,-1 7.2,-1.5 12,-2.6 5.5,1.8 8.2,2.7 13.7,4.3 4.8,-1.4 7.1,-2.2 11.9,-3.8 5.6,1.3 8.4,1.9 14,3 4.7,-1.9 7.1,-2.9 11.8,-4.9 5.7,0.8 8.5,1.1 14.2,1.7 4.7,-2.3 7,-3.5 11.6,-6 5.8,0.3 8.6,0.3 14.4,0.4 4.6,-2.8 6.8,-4.2 11.4,-7.1 5.8,-0.3 8.7,-0.5 14.5,-1 4.4,-3.2 6.6,-4.901 11,-8.201 6.4,-1 9.7,-1.499 16.1,-2.799 0,2.2 0,3.4 0.1,5.6 -5.3,1 -7.9,1.5 -13.2,2.3 -4.5,3.4 -6.7,5.099 -11.2,8.399 -5.9,0.6 -8.8,0.801 -14.7,1.101 -4.6,3 -6.9,4.4 -11.5,7.3 -5.8,0 -8.8,-0.1 -14.6,-0.3 -4.7,2.5 -7,3.8 -11.8,6.1 -5.8,-0.5 -8.7,-0.9 -14.4,-1.6 -4.8,2.1 -7.2,3.1 -11.9,5 -5.7,-1.1 -8.5,-1.7 -14.2,-3 -4.8,1.6 -7.2,2.4 -12,3.8 -5.6,-1.6 -8.3,-2.4 -13.9,-4.2 -4.8,1.2 -7.3,1.7 -12.1,2.7 -5.4,-2.1 -8.1,-3.2 -13.5,-5.5 -4.4,0.6 -6.5,0.9 -10.9,1.3 -1.2,-2.5 -1.9,-3.7 -3.3,-6 z"
         id="path195" />
    </g>
    <path
       fill="#000000"
       d="m 271.199,342.1 c -75.1,0.2 -180.7,1 -254.7,0.8 -1.5,0 -2.8,-1.4 -2.5,-2.9 3.6,-21.5 8.6,-42.6 15.8,-63.2 7.5,-22 18,-39 37.3,-52.6 8.9,-6.4 18.9,-10.9 29.1,-14.5 3.3,-1.3 6.7,-2.7 10.3,-3.7 l 1,0.7 v -0.1 c 0,-0.5 -1,-0.8 -0.7,-0.7 v -0.1 c 0.1,-0.2 0.3,-0.3 0.4,-0.5 1.1,-1.2 2.7,-1.6 4.3,-1.7 1.7,-0.2 3.4,-0.4 5.2,-0.6 6.9,-0.8 13.9,-1 20.9,-0.3 7,0.8 13.7,2.1 20.5,3.6 9.8,2.2 19.5,5.4 29.1,8.3 l 0.3,0.1 h 0.1 c 0,0 0.1,0 0,0 h -0.2 c -0.1,0 -0.2,0 -0.3,0.1 h 0.7 c 13.2,3.5 24.6,11.1 35.6,19 5.4,4 10.7,8.1 15.9,12.4 5.4,4.2 9.6,10 12.9,16 6.5,11.9 10.5,25 13.6,38.1 2.8,12.3 4.8,24.8 6.1,37.3 l 0.1,1.3 0.1,0.6 v 0.3 c -0.2,0.9 -0.5,1.8 -0.9,2.3 z m -3.8,-3.5 c -0.4,0.4 -0.8,1.2 -0.7,1.7 v -1 c -1.7,-19.3 -4.9,-38.6 -10.9,-57 -4.1,-12 -9.4,-24.7 -19.4,-32.8 -10.1,-8.4 -20.6,-16.7 -32,-23.3 -5.7,-3.2 -11.6,-6.1 -17.7,-7.7 l 1.5,-0.1 c -0.2,0.2 -1.1,0.2 -1.2,0.1 -5.9,-1.2 -14,-4.3 -19.8,-6.2 -8.1,-2.7 -16.5,-4.1 -25,-4.8 -8.4,-0.8 -16.8,-0.1 -25.1,0.8 -1.7,0.2 -3.4,0.3 -5,0.5 -1.8,0.4 -3.7,0.3 -5.3,-1 h -0.2 c 0.2,0.1 -0.8,-0.2 -0.7,-0.7 V 207 l 1,0.7 c -3.4,0.9 -6.6,2.5 -10,3.8 -3.3,1.4 -6.7,2.5 -10,4 -12.9,5.8 -24.7,14.4 -34,25.2 -9.5,10.7 -15.1,23.9 -19.6,37.4 -6.7,20.3 -11.3,41.5 -14.3,62.6 l -2.5,-2.9 c 72.5,0.1 177.3,0.4 250.9,0.8 z"
       id="path199" />
    <path
       stroke="#544d4d"
       stroke-linecap="round"
       stroke-linejoin="round"
       stroke-miterlimit="10"
       stroke-width="3"
       d="m 65.9,340.4 -4.5,-37.1 m 179.2,-12.6 c 0,0 -3,7.3 -2.1,14.6 0.9,7.3 3.5,18 -0.2,35.1"
       id="path201" />
    <path
       fill="#000000"
       d="m 89.1,210.6 c 1.9,-0.6 5.2,0 6.2,1.7 3.9,6.4 13.3,25.1 17.2,62.2 3.1,29 -1.6,81.2 -1.6,81.2 l -97.1,-4.6 c 0,0 10.1,-36 18.6,-69 4.6,-17.8 6.1,-43.5 18.8,-53 10.2,-7.6 22.9,-13.3 37.9,-18.5 z m 100.6,6.1 c 0,0 30.9,58.1 21.9,135.7 h 66.7 c 0,0 -2.4,-8.5 -10.8,-44.2 -7.4,-31.2 -14.9,-58 -22.7,-65.3 -20.4,-19.2 -49.3,-28.7 -49.3,-28.7 0,0 -3.3,1.6 -5.8,2.5 z"
       id="path203" />
    <path
       fill="#7e5d6d"
       d="m 189.7,216.7 -2.4,-0.7 c 0,0 3.5,-1.7 5,-2.7 l 0.9,-0.5 c 0,0 4.8,2.2 6.5,3 1.7,0.8 -5.9,4.5 -5.9,4.5 0,0 -3.8,-3.5 -4.1,-3.6 z"
       id="path205" />
    <path
       fill="#ffffff"
       d="m 111.4,265.2 c 0,0 -3.4,-9.7 -11.1,-18.3 -7.1,-8 -20.1,-20.4 -21,-23.2 -0.6,-1.9 0.2,-5.4 2,-9.5 3.8,-8.7 12.3,-20.1 23.5,-25.2 27.2,-9.6 31.4,7.5 31.8,12.9 0.1,1.5 -29.8,8 -29.7,9.5 v 0.1 c 0,0 -4.6,1.5 -1.3,24.4 0.8,5.6 4.3,15.4 5.8,29.3 z"
       id="path207" />
    <path
       fill="#000000"
       d="m 111.7,266.7 c -0.7,0.1 -1.6,-0.4 -1.8,-1.1 l -0.1,-0.2 -0.1,-0.3 c -2.1,-5.3 -5,-10.3 -8.5,-14.8 -7.1,-8.8 -15.9,-15.9 -22.7,-25 -0.2,-0.3 -0.4,-0.6 -0.5,-1 -0.9,-3.1 0.4,-6.4 1.4,-9.2 4.9,-11.6 13.4,-22 24.9,-27.4 2.9,-1 6,-1.9 9.1,-2.4 6.2,-1.1 13.4,-0.8 18.5,3.5 3.9,3.3 5.9,8.1 6.4,13.1 0.1,1 -0.9,1.7 -1.6,2.1 -8.9,3.4 -19.3,5 -28.2,8.3 -0.1,0.1 -0.3,0.1 -0.3,0.2 l 0.2,-0.2 c 0.1,-0.2 0.3,-0.5 0.3,-0.8 v 0.1 l -1,1.4 c 0.1,0 0.2,-0.1 0.2,-0.1 0,0 -0.1,0.1 -0.1,0.2 -0.9,1.4 -1.1,3.2 -1.3,4.9 -0.3,3.3 -0.2,6.7 0.1,10 l 0.3,3.4 c 0.6,6.9 2.7,13.2 4.1,20 0.7,3.4 1.3,6.8 1.8,10.2 0.1,0.7 0.2,1.6 0.2,2.4 -0.4,0.9 -0.9,1.8 -1.3,2.7 z m -0.6,-3 c -0.3,-0.4 -0.9,-0.7 -1.3,-0.7 -0.1,0 -0.2,-0.1 -0.2,-0.2 l -0.1,-0.8 c -1.1,-9.1 -4.1,-17.7 -5.6,-26.9 -0.2,-1.7 -0.6,-5.2 -0.8,-6.9 -0.3,-5.3 -0.9,-11 1.3,-16.1 0.5,-0.9 0.8,-1.6 2,-2.1 l -1.1,1.5 v -0.2 c 0,-0.6 0.6,-1.3 1,-1.6 2.7,-1.4 5.6,-2 8.5,-2.9 6.4,-1.9 14.6,-3.6 20.7,-6 l -0.2,0.2 -0.1,0.1 c -0.1,0.1 -0.2,0.3 -0.2,0.5 v 0.3 c -0.3,-4.1 -2.1,-8.4 -5.3,-11 -4.4,-3.7 -10.5,-3.8 -16,-2.9 -2.7,0.4 -6.2,1.5 -8.4,2.2 -7.2,3.2 -13.3,8.7 -18.1,15 -3.5,4.8 -6.8,10.2 -7.6,16.1 -0.4,2.1 1.1,3.5 2.3,5 4.6,5.3 12,12.5 16.9,17.6 5.7,5.8 10.5,12.7 13.7,20.1 l 0.1,0.2 c 0,-0.3 -0.9,-0.7 -1.5,-0.5 z"
       id="path209" />
    <path
       fill="#ffffff"
       d="m 207.199,268.3 c 0,0 -6.7,-26 -10,-34.3 -3.3,-8.2 -9.5,-17.5 -9.8,-18 -9.5,-15.4 -9.2,-22.1 -6.1,-24.8 3.1,-2.7 10.6,-2.2 24.4,9.9 2.5,2.8 17.4,19.6 19,28.8 0.9,5.1 -1.9,8.7 -5.7,14 -3.9,5.4 -8.7,12.5 -11.8,24.4 z"
       id="path211" />
    <path
       fill="#000000"
       d="m 207.2,268.3 c -3.4,-11 -6.5,-22.3 -10.6,-33.1 -2.6,-6.3 -6.3,-12.2 -10.1,-17.9 -3.7,-6.1 -7.6,-12.4 -8.6,-19.6 -0.9,-6.8 4,-10.7 10.5,-9 7.1,1.9 12.8,6.7 18.2,11.3 4.4,4.9 8.6,9.9 12.4,15.4 4.6,7.1 10.5,15.4 4.8,23.6 -2.6,4.1 -5.9,7.8 -8.5,11.9 -3.5,5.4 -6.2,11.2 -8.1,17.4 z m 0,-1.5 c -0.2,-0.5 -0.5,-0.6 -0.7,-0.9 0.3,-0.9 0.6,-1.8 0.9,-2.6 12.6,-32.4 32.2,-23.1 -2.9,-61.1 -4.4,-3.7 -10.6,-8.8 -16.8,-10.4 -4.5,-1.1 -7.3,0.9 -6.7,5.6 1.8,11.4 10.3,20.3 15.1,30.5 4.3,8.4 6.4,17.6 9,26.6 0.6,2.2 2.2,8 2.7,10.1 0.2,0.7 0.6,2.2 0.8,3 v 0.1 c -0.2,-0.6 -1,-1 -1.4,-0.9 z"
       id="path213" />
  </svg>
  <svg
     width="306"
     height="306"
     fill="none"
     version="1.1"
     id="svg235"
     transform="translate(-13.8,-48.570684)">
    <path
       fill="#ffffff"
       d="m 182.999,245.6 c -2.1,10.3 -15.7,16.5 -38.6,7.2 -23.8,-9.6 -34.1,-32.5 -36.7,-39.3 14.1,-26.4 4.3,-44.7 4.3,-44.7 32.5,-2.8 60.9,35.2 60.9,35.2 l 4.4,18.8 c 0.4,1.6 1.2,3 2.4,4 2.1,3.7 4.6,12.2 3.3,18.8 z"
       id="path217" />
    <path
       fill="#000000"
       d="m 107.2,213.8 c 1.9,-2.9 3.1,-6.3 3.9,-9.6 1.5,-6.9 2,-13.9 2.1,-20.9 v -2.6 c -0.3,-2.6 -1.2,-5.3 -2.2,-7.7 -1.3,-3.2 3.4,-5.2 4.9,-2 0.2,0.4 0.2,1.1 0.2,1.5 0.3,13.6 0.9,31.1 -7.7,42.4 -0.6,0.6 -1.8,-0.3 -1.2,-1.1 z m 66.799,-10 c 1.5,0.9 2,2.1 2.2,3.3 0.6,2.4 0.4,5 1,7.5 0.5,2.4 2,4.7 2.4,7.2 0.5,2.6 2,8.1 2.6,10.8 0.2,0.6 -0.2,1.3 -0.9,1.4 -0.4,0.1 -0.7,0 -1,-0.2 -1.3,-1.1 -1.9,-2.2 -2.7,-3.6 -1.3,-2.4 -2.2,-4.6 -3,-7.3 -0.7,-2.4 -0.4,-5 -1,-7.5 -0.5,-2.4 -1.9,-4.7 -2.4,-7.2 -0.3,-1.2 -0.4,-2.5 0.5,-4 0.6,-0.6 1.6,-0.8 2.3,-0.4 z"
       id="path219" />
    <path
       fill="#000000"
       d="m 181.2,230.2 c -19.1,-1 -34.7,-7 -49.9,-34.1 12.8,11.3 27.9,15.6 43.8,17.6 l 2.1,9.2 c 0.4,1.6 2.8,6.3 4,7.3 z"
       id="path221" />
    <path
       fill="#000000"
       d="m 180.4,226.5 c 3.4,6.4 5.4,14.4 3.3,21.5 -1.6,5 -6.2,8.7 -11.2,10.1 -11.6,3.1 -25,-1.8 -35.3,-7.3 -12.7,-7.1 -22.1,-19 -28.1,-32 -0.4,-1 1,-1.8 1.6,-0.8 2.1,4.2 4.5,8.3 7.2,12 2.7,3.8 5.8,7.3 9.3,10.4 10.2,9.2 24,14.9 37.8,14.9 14.2,-0.4 19.6,-7.9 16.3,-21.7 -0.5,-2.2 -1.3,-4.5 -2.4,-6.4 -0.6,-0.8 0.9,-1.7 1.5,-0.7 z"
       id="path223" />
    <path
       fill="#ffffff"
       d="m 219.1,106.4 c 1.8,8.4 0.4,14 -0.4,37.2 -0.8,22.8 -7.4,55 -15.5,63.1 -6.2,6.1 -26.1,10.9 -43.8,6.4 -9,-2.3 -16.6,-7.5 -22.8,-11.2 -7.8,-4.7 -14.6,-19.2 -20.2,-28.5 -4.4,-7.3 -4,1.5 -9.7,-4.8 C 98.8,160 89.3,142.7 94,112.1 c 7.6,-49.6 46.9,-55.4 76,-49.9 29.3,5.5 44.3,22.1 49.1,44.2 z"
       id="path225" />
    <path
       fill="#000000"
       d="m 111.7,177.4 c -2.3,-3.8 -5.3,-7.2 -8,-10.8 -4,-5.5 -7,-11.8 -9,-18.3 -8.7,-27.8 -3.4,-64.2 22.9,-80.6 23.9,-15.2 70.3,-9.7 89.7,11.1 7.3,7.5 12,17.3 14,27.5 0.1,0.6 0.4,1.7 0.5,2.3 0.1,0.5 0.4,1.1 0.3,1.7 -0.2,2.2 -0.6,4.4 -0.8,6.6 -1.5,13.3 -1.1,26.9 -2.8,40.2 -1.5,14 -3.5,28 -7.7,41.5 -1.3,4.1 -3.8,7.8 -7.1,10.5 -7.4,6.2 -17.1,8.3 -26.4,8.7 -18.6,0.9 -37.5,-5.7 -48.3,-21.4 -0.4,-0.6 0.4,-1.3 0.9,-0.7 9,9.7 21.2,15.9 34.2,17.3 14.4,1.7 36.1,0.4 42.4,-15 7.3,-21.8 11.1,-44.9 11.5,-67.8 0,-5.6 -0.3,-11.2 -0.3,-16.9 0,-0.7 0.1,-2.3 0.1,-3 0,-0.1 0,0 0,0 0,0.1 0,0.1 0,0 -0.8,-2 -1.1,-4.2 -1.7,-6.2 -2.2,-8.3 -6.2,-16.2 -11.9,-22.5 -18.9,-21.2 -61,-26.5 -84.6,-10.6 -18.7,12.4 -23.7,36.2 -25,57.2 -1.1,15.7 3.5,31.1 15.4,41.9 l 4.7,4.9 c 2,2.2 -1.4,4.8 -3,2.4 z"
       id="path227" />
    <path
       fill="#ffffff"
       d="m 123.5,145.6 c 0,0 -3.1,-15 -17.7,-13.2 -12.6,1.6 -17,31.8 11.6,40.2"
       id="path229" />
    <path
       fill="#000000"
       d="m 116.1,159.5 c -2.3,-1.3 -3.9,-3.5 -4,-6.2 0.1,-2 0.4,-4.3 -0.1,-6.3 -0.3,-1.9 -2.3,-2.4 -3.8,-2.3 -1.6,0.3 -2.6,2.3 -2.9,3.9 0,0.1 -0.1,0.4 -0.1,0.5 -0.1,0.5 -0.9,0.5 -1.1,0 -1.3,-3.9 1.6,-8.2 5.8,-7.7 5.9,0.4 6.7,6.6 5.6,11.3 -0.6,2 0.2,3.8 1.3,5.5 l 0.2,0.3 c 0.5,0.6 -0.3,1.4 -0.9,1 z M 196.101,135 c 1.5,7.1 4.3,13.7 7.8,19.9 3.1,7.6 -4.9,14.8 -12,14.5 -0.8,0 -0.9,-1.1 -0.2,-1.3 4.5,-1.4 8.6,-4.4 9.3,-9 0.3,-1.4 -0.1,-2.6 -0.8,-3.8 -3.3,-6.2 -5.3,-13.3 -4.8,-20.3 0,-0.5 0.7,-0.5 0.7,0 z"
       id="path231" />
    <path
       fill="#000000"
       d="m 123,145.7 c -2.3,-5.9 -7.3,-11.5 -14,-11.4 -0.6,-0.1 -1.6,0.1 -2.2,0.1 -1.7,0.1 -3.1,0.7 -4.4,1.9 -6.4,6.4 -5.3,17.7 -0.1,24.8 1.8,2.5 4.1,4.7 6.7,6.5 2.6,1.8 5.5,3.2 8.6,4.4 0.7,0.2 0.4,1.3 -0.3,1.2 -6.7,-1.4 -13.1,-4.7 -17.5,-10.2 -6.8,-8.2 -8.2,-21.9 -0.1,-29.9 1.8,-1.6 4.3,-2.8 6.8,-2.8 0.8,0 2,-0.2 2.8,0 4.2,0.2 8.2,2.3 10.8,5.6 2.3,2.8 3.6,6.2 4,9.6 0,0.6 -0.9,0.8 -1.1,0.2 z"
       id="path233" />
  </svg>
  <svg
     width="306"
     height="306"
     fill="none"
     version="1.1"
     id="svg239"
     transform="translate(-13.8,-48.570684)">
    <path
       fill="#000000"
       d="M 226.7,82.6 C 233.8,56.9 205,40.8 197.3,52.4 c -5.6,8.4 -27.2,1.9 -60,1.3 -32.8,-0.7 -41.6,16.7 -42,35.4 0,0 -14.4,7.6 -13.5,34.4 0.9,27.8 29.5,50.2 33,64.3 0,0 0.4,1.8 -3.4,-17.5 -21.8,-10.5 -17.2,-36.4 -5.5,-37.9 8.9,-1.1 13.6,4.1 15.8,8.3 0.9,1.2 9.4,11.6 9.6,-22.4 0.1,-23.2 22.7,-30.8 48.4,-21.4 13.4,4.9 27.5,8.5 37.2,1.5 1.6,4.6 3.3,9.7 2,15.9 3.9,-3.6 7.2,-8.9 8.1,-15.4 0.6,-3.9 -0.4,-7.3 -2.6,-10.3 0.9,-1.7 1.7,-3.8 2.3,-6 z"
       id="path237" />
  </svg>
  <svg
     width="306"
     height="306"
     fill="none"
     version="1.1"
     id="svg245"
     transform="translate(-13.8,-48.570684)">
    <path
       fill="#000000"
       d="m 163.5,138.1 v 0.2 l -0.1,2.8 c -0.1,2.4 -2.1,4.2 -4.5,4.1 -2.4,-0.1 -4.2,-2.2 -4,-4.5 l 0.1,-2.8 c 0,-0.5 0.2,-1.1 0.4,-1.5 l 8,0.4 c 0,0.4 0.1,0.8 0.1,1.3 z m 41.8,2.2 -0.1,2.6 c -0.1,2.2 -2,3.9 -4.2,3.8 -2.2,-0.1 -3.9,-2 -3.8,-4.2 l 0.1,-2.6 c 0,-0.5 0.1,-1 0.3,-1.4 l 7.5,0.3 c 0.1,0.5 0.2,1 0.2,1.5 z m -31.8,-15.9 c 2.2,0.3 3.9,-2 3.1,-4.2 -0.4,-1.2 -1.1,-2.3 -2.2,-3 -3.4,-2.1 -16.1,-2.3 -22.8,2.5 -6,4.4 11.9,3.3 21.9,4.7 z m 27.7,1.1 c -1.8,0 -2.9,-2.3 -2,-4.2 0.5,-1 1.2,-1.9 2.2,-2.4 3.1,-1.5 11.4,-0.6 15.1,4.5 3.3,4.5 -7,2 -15.3,2.1 z"
       id="path241" />
    <path
       fill="#000000"
       d="m 169.899,138.1 -16.5,-0.3 c -2,-0.1 -1.9,-3.1 0.1,-3 l 16.5,1.2 c 1.4,0.1 1.3,2.1 -0.1,2.1 z m 39.601,1.7 -12.2,0.2 c -2,0 -2.1,-2.9 -0.1,-3 h 0.2 l 12.2,1.3 c 0.9,0.1 0.8,1.4 -0.1,1.5 z"
       id="path243" />
  </svg>
  <svg
     width="306"
     height="306"
     fill="none"
     version="1.1"
     id="svg249"
     transform="translate(-13.8,-48.570684)">
    <path
       fill="#000000"
       d="m 188.5,179.4 c -6.4,6.1 -18.5,1.2 -21.7,-6.2 -0.4,-0.9 0.6,-1.7 1.4,-1.3 1.7,0.9 3.2,1.8 4.8,2.5 4.6,2.1 9.4,3.8 14.5,3.3 1,-0.2 1.7,1 1,1.7 z"
       id="path247" />
  </svg>
  <svg
     width="306"
     height="306"
     fill="none"
     version="1.1"
     id="svg251"
     transform="translate(-13.8,-48.570684)" />
  <svg
     width="306"
     height="306"
     fill="none"
     version="1.1"
     id="svg253"
     transform="translate(-13.8,-48.570684)" />
</svg>
