<svg width="512" height="512" viewBox="0 0 135.467 135.467" xmlns="http://www.w3.org/2000/svg"><g transform="matrix(8.05028 0 0 8.05028 -640.737 -620.466)"><rect style="fill:#fff;fill-opacity:1;stroke:#000;stroke-width:1;stroke-dasharray:none;stroke-opacity:1" width="10.876" height="12.094" x="82.568" y="79.441" rx="1.9" ry="1.9"/><path style="fill:#ffd42a;stroke:#fff;stroke-width:.3;stroke-dasharray:none" d="M86.17 93.226a.346.346 0 0 1-.185-.254c-.008-.057.14-.789.62-3.07.347-1.648.635-3.011.64-3.03.01-.03-.07-.032-1.507-.032-1.433 0-1.522-.003-1.593-.035a.286.286 0 0 1-.168-.176.303.303 0 0 1 .014-.279c.032-.06 3.908-5.77 5.679-8.365.151-.222.235-.28.386-.267.165.015.313.163.314.316 0 .041-1.24 5.971-1.269 6.069-.009.03.063.033 1.34.033h1.349l.084.042a.332.332 0 0 1 .18.359 1.231 1.231 0 0 1-.131.249l-.485.758a11303.154 11303.154 0 0 0-4.5 7.033c-.19.3-.37.568-.4.596a.333.333 0 0 1-.368.053z"/><path d="M88.025 86.255h-1.534v2.787H85.04v-7.109h3.487q.747.014 1.148.183.405.17.684.497.232.27.367.598.135.328.135.748 0 .506-.256.998-.255.487-.844.69.492.198.695.564.207.362.207 1.11v.477q0 .487.039.66.058.276.27.406v.178h-1.635q-.068-.236-.097-.38-.057-.3-.062-.613l-.01-.661q-.01-.68-.25-.907-.237-.226-.893-.226zm.902-1.293q.444-.203.444-.8 0-.647-.43-.869-.24-.125-.723-.125h-1.727v1.91h1.684q.501 0 .752-.116z" style="font-weight:700;font-size:9.87777px;font-family:Helvetica;-inkscape-font-specification:'Helvetica Bold';fill:#1a1a1a;fill-opacity:1;stroke-width:.056"/></g></svg>