<?xml version="1.0" encoding="UTF-8" standalone="no"?>
<svg
   width="350mm"
   height="192mm"
   viewBox="0 0 350 192"
   xml:space="preserve"
   version="1.1"
   id="svg212"
   sodipodi:docname="example-card.svg"
   inkscape:version="1.2.2 (b0a84865, 2022-12-01)"
   xmlns:inkscape="http://www.inkscape.org/namespaces/inkscape"
   xmlns:sodipodi="http://sodipodi.sourceforge.net/DTD/sodipodi-0.dtd"
   xmlns="http://www.w3.org/2000/svg"
   xmlns:svg="http://www.w3.org/2000/svg"><defs
     id="defs216" /><sodipodi:namedview
     id="namedview214"
     pagecolor="#ffffff"
     bordercolor="#000000"
     borderopacity="0.25"
     inkscape:showpageshadow="2"
     inkscape:pageopacity="0.0"
     inkscape:pagecheckerboard="0"
     inkscape:deskcolor="#d1d1d1"
     inkscape:document-units="mm"
     showgrid="false"
     inkscape:zoom="0.32521701"
     inkscape:cx="916.31122"
     inkscape:cy="410.49513"
     inkscape:window-width="1440"
     inkscape:window-height="797"
     inkscape:window-x="0"
     inkscape:window-y="25"
     inkscape:window-maximized="0"
     inkscape:current-layer="svg212" /><g
     id="g1620"
     transform="translate(-5.6101618,-6.3227216)"><path
       style="fill:#27ae60;fill-opacity:1;stroke-width:0.176389"
       d="m 136.82241,82.851496 c 0.76738,-0.19222 2.14929,-0.72545 3.07092,-1.18495 1.40577,-0.70087 1.94889,-1.10628 3.3717,-2.51682 1.88913,-1.87282 2.83269,-3.36398 3.63104,-5.73831 0.43141,-1.28304 0.47535,-1.65925 0.48413,-4.14514 0.008,-2.38282 -0.0428,-2.90094 -0.39854,-4.03341 -1.98308,-6.31256 -7.18765,-10.256354 -13.52652,-10.249789 -4.16595,0.0043 -7.68116,1.530897 -10.55183,4.582439 -1.54285,1.64006 -2.91293,4.19937 -3.37044,6.296 -0.40305,1.84702 -0.36613,4.94024 0.0798,6.68384 1.08695,4.25022 4.17486,7.93609 8.05532,9.61518 2.52619,1.09309 6.38605,1.38443 9.15444,0.69096 z"
       id="path463" /><path
       style="fill:#3498db;fill-opacity:1;stroke-width:0.176389"
       d="m 166.37095,105.9961 c 9.64554,-2.59611 16.63526,-10.031144 18.89959,-20.103674 0.32868,-1.46206 0.38661,-2.25258 0.3847,-5.24907 -0.002,-3.18742 -0.0469,-3.71662 -0.46496,-5.48519 -2.4256,-10.26113 -10.74671,-18.11426 -21.10832,-19.921177 -1.02713,-0.179116 -2.79736,-0.25821 -5.77911,-0.25821 h -4.29842 v 25.856847 25.856844 l 5.15937,-0.0726 c 5.11622,-0.072 5.17651,-0.0772 7.20715,-0.62376 z"
       id="path461" /><path
       style="fill:#8e44ad;fill-opacity:1;stroke-width:0.176389"
       d="M 147.65444,118.18123 V 86.695819 h -14.11111 -14.11111 v 31.485411 31.48541 h 14.11111 14.11111 z"
       id="path459" /><path
       sodipodi:type="star"
       style="fill:#e74c3c;fill-opacity:1;stroke:#ffffff;stroke-width:1"
       id="path523"
       inkscape:flatsided="true"
       sodipodi:sides="3"
       sodipodi:cx="-136.67796"
       sodipodi:cy="143.99998"
       sodipodi:r1="69.171684"
       sodipodi:r2="34.585842"
       sodipodi:arg1="0"
       sodipodi:arg2="1.0471976"
       inkscape:rounded="0"
       inkscape:randomized="0"
       d="m -67.506279,143.99998 -103.757531,59.90444 0,-119.808871 z"
       inkscape:transform-center-y="-12.662772"
       transform="matrix(0,-0.73225171,0.73225171,0,92.023915,23.892324)" /></g></svg>
